<svg xmlns="http://www.w3.org/2000/svg" xmlns:xlink="http://www.w3.org/1999/xlink" xmlns:xodm="http://www.corel.com/coreldraw/odm/2003" xml:space="preserve" width="1700px" height="170px" style="shape-rendering:geometricPrecision; text-rendering:geometricPrecision; image-rendering:optimizeQuality; fill-rule:evenodd; clip-rule:evenodd" viewBox="0 0 1700 170"> <defs> <style type="text/css"> .fil0 {fill:black;fill-rule:nonzero} </style> </defs> <g id="Capa_x0020_1"> <metadata id="CorelCorpID_0Corel-Layer"></metadata> <path class="fil0" d="M41.47 161.56l24.18 -0.65c44.65,-1.09 61.2,-25.7 61.2,-72.97 0,-54.03 -19.82,-78.64 -61.42,-78.64l-23.96 0 0 152.26zm-25.05 -29.84l0 -92.36c0,-15.03 -1.74,-21.56 -8.72,-33.1l0 -0.44c27.24,0 30.94,-0.87 59.69,-0.87 54.24,0 87.13,28.31 87.13,79.94 0,52.06 -31.15,80.37 -87.13,80.37l-59.69 0 0 -0.43c6.98,-11.55 8.72,-18.08 8.72,-33.11z"></path> <path class="fil0" d="M186.1 100.79l47.7 0 -23.74 -62.95 -23.96 62.95zm-35.29 64.47l0 -0.43c10.46,-11.11 14.38,-20.48 20.7,-37.47l46.83 -123.28 4.36 0 47.7 125.68c6.97,18.95 12.19,27.44 19.82,35.07l0 0.43 -43.35 0 0 -0.43c3.71,-6.32 3.71,-19.82 -2.4,-36.16l-8.92 -23.53 -51.19 0 -4.58 12.2c-9.79,25.27 -4.13,40.52 0.44,47.49l0 0.43 -29.41 0z"></path> <path class="fil0" d="M314.39 121.92c0,19.6 2.83,27.66 15.03,42.91l0 0.43 -33.55 0 0 -0.43c10.89,-15.04 13.29,-23.53 13.29,-42.91l0 -85.39c-1.09,-14.37 -4.79,-20.47 -16.99,-30.28l0 -0.43 34.86 0 91.26 123.94 -0.66 -80.59c0,-19.39 -2.83,-27.88 -13.28,-42.92l0 -0.43 31.37 0 0 0.43c-10.46,15.25 -13.29,23.31 -13.29,42.92l0 116.09 -7.85 0.66 -101.06 -137.23 0.87 93.23z"></path> <path class="fil0" d="M460.33 125.84l0 -80.6c0,-18.08 -1.52,-25.48 -8.72,-38.98l0 -0.44 42.48 0 0 0.44c-7.19,13.5 -8.71,20.9 -8.71,38.98l0 80.6c0,18.08 1.52,25.48 8.71,38.99l0 0.43 -42.48 0 0 -0.43c7.2,-13.51 8.72,-20.91 8.72,-38.99z"></path> <path class="fil0" d="M515.44 165.26l0 -0.43c5.66,-13.07 8.49,-22.01 8.49,-36.38l0 -85.82c0,-14.6 -2.83,-23.09 -8.49,-36.38l0 -0.43 100.62 0 8.5 38.77 -1.74 0.65c-11.54,-12.19 -27.22,-33.98 -36.81,-34.63l-36.81 -1.52 0 73.62 18.73 0c10.67,0 19.38,-14.59 27.01,-22.87l1.96 0 0 49.23 -1.96 0c-6.97,-7.63 -16.56,-22.01 -27.01,-22.01l-18.73 0 0 74.94 38.77 -1.53c17.86,-0.65 34.63,-22.22 46.83,-38.99l1.74 0.65 -9.58 43.13 -111.52 0z"></path> <path class="fil0" d="M649.39 164.83c6.97,-13.29 8.72,-21.35 8.72,-38.99l0 -80.6c0,-17.64 -1.75,-25.7 -8.72,-38.99l0 -0.43 42.48 0 0 0.43c-7.19,13.51 -8.71,20.92 -8.71,38.99l0 116.98 32.89 -1.31c18.07,-0.66 35.06,-21.13 47.04,-39.43l1.75 0.66 -9.59 43.12 -105.86 0 0 -0.43z"></path> <path class="fil0" d="M801.86 100.79l47.71 0 -23.75 -62.95 -23.96 62.95zm-35.28 64.47l0 -0.43c10.45,-11.11 14.38,-20.48 20.69,-37.47l46.84 -123.28 4.35 0 47.7 125.68c6.97,18.95 12.2,27.44 19.82,35.07l0 0.43 -43.34 0 0 -0.43c3.7,-6.32 3.7,-19.82 -2.4,-36.16l-8.93 -23.53 -51.19 0 -4.57 12.2c-9.8,25.27 -4.14,40.52 0.44,47.49l0 0.43 -29.41 0z"></path> <path class="fil0" d="M948.23 164.83c11.11,-15.25 13.73,-23.31 13.73,-42.92l0 -85.6c-1.09,-14.15 -4.58,-20.25 -15.47,-30.06l0 -0.43 39.64 0 55.98 123.94 53.8 -123.94 38.56 0 0 0.43c-12.41,11.11 -15.47,17.65 -15.47,36.38l0 83.21c0,18.08 1.53,25.48 8.72,38.99l0 0.43 -42.47 0 0 -0.43c6.96,-13.29 8.71,-21.35 8.71,-38.99l0 -103.03 -59.9 137.66 -4.58 0 -63.16 -138.53 0.65 99.97c0,19.39 3.05,28.11 15.68,42.92l0 0.43 -34.42 0 0 -0.43z"></path> <path class="fil0" d="M1173.23 100.79l47.71 0 -23.75 -62.95 -23.96 62.95zm-35.28 64.47l0 -0.43c10.46,-11.11 14.38,-20.48 20.69,-37.47l46.84 -123.28 4.35 0 47.71 125.68c6.96,18.95 12.19,27.44 19.81,35.07l0 0.43 -43.34 0 0 -0.43c3.7,-6.32 3.7,-19.82 -2.4,-36.16l-8.93 -23.53 -51.19 0 -4.57 12.2c-9.8,25.27 -4.14,40.52 0.44,47.49l0 0.43 -29.41 0z"></path> <path class="fil0" d="M1287.59 164.83c6.97,-13.29 8.71,-21.35 8.71,-38.99l0 -80.6c0,-17.64 -1.74,-25.7 -8.71,-38.99l0 -0.43 42.47 0 0 0.43c-7.18,13.51 -8.71,20.92 -8.71,38.99l0 116.98 32.89 -1.31c18.08,-0.66 35.07,-21.13 47.05,-39.43l1.75 0.66 -9.59 43.12 -105.86 0 0 -0.43z"></path> <path class="fil0" d="M1414.8 165.26l0 -0.43c5.66,-13.07 8.49,-22.01 8.49,-36.38l0 -85.82c0,-14.6 -2.83,-23.09 -8.49,-36.38l0 -0.43 100.62 0 8.5 38.77 -1.75 0.65c-11.53,-12.19 -27.22,-33.98 -36.8,-34.63l-36.82 -1.52 0 73.62 18.74 0c10.67,0 19.38,-14.59 27.01,-22.87l1.96 0 0 49.23 -1.96 0c-6.97,-7.63 -16.56,-22.01 -27.01,-22.01l-18.74 0 0 74.94 38.78 -1.53c17.86,-0.65 34.63,-22.22 46.82,-38.99l1.75 0.65 -9.58 43.13 -111.52 0z"></path> <path class="fil0" d="M1557.46 125.84l0 -80.6c0,-17.64 -1.74,-25.7 -8.71,-38.98l0 -0.44 42.48 0 0 0.44c-7.19,13.5 -8.72,20.9 -8.72,38.98l0 35.72 76.03 0 0 -35.72c0,-18.08 -1.53,-25.48 -8.72,-38.98l0 -0.44 42.47 0 0 0.44c-7.18,13.5 -8.7,20.9 -8.7,38.98l0 80.6c0,18.08 1.52,25.48 8.7,38.99l0 0.43 -42.47 0 0 -0.43c7.19,-13.51 8.72,-20.91 8.72,-38.99l0 -40.52 -76.03 0 0 40.52c0,18.08 1.53,25.48 8.72,38.99l0 0.43 -42.48 0 0 -0.43c6.97,-13.29 8.71,-21.35 8.71,-38.99z"></path> </g> </svg>